<?xml version="1.0" encoding="UTF-8" standalone="no"?>
<!-- Created with Inkscape (http://www.inkscape.org/) -->

<svg
   xmlns:dc="http://purl.org/dc/elements/1.1/"
   xmlns:cc="http://creativecommons.org/ns#"
   xmlns:rdf="http://www.w3.org/1999/02/22-rdf-syntax-ns#"
   xmlns:svg="http://www.w3.org/2000/svg"
   xmlns="http://www.w3.org/2000/svg"
   xmlns:sodipodi="http://sodipodi.sourceforge.net/DTD/sodipodi-0.dtd"
   xmlns:inkscape="http://www.inkscape.org/namespaces/inkscape"
   width="1000"
   height="1000"
   viewBox="0 0 264.58333 264.58334"
   version="1.1"
   id="svg8"
   inkscape:version="0.92.2 (5c3e80d, 2017-08-06)"
   sodipodi:docname="icon.svg"
   inkscape:export-filename="\\wsl$\Ubuntu\home\paul\work\citypantry-error-plugin\icon.png"
   inkscape:export-xdpi="96"
   inkscape:export-ydpi="96">
  <defs
     id="defs2" />
  <sodipodi:namedview
     id="base"
     pagecolor="#ffffff"
     bordercolor="#666666"
     borderopacity="1.0"
     inkscape:pageopacity="0"
     inkscape:pageshadow="2"
     inkscape:zoom="0.35"
     inkscape:cx="-177.14286"
     inkscape:cy="560"
     inkscape:document-units="px"
     inkscape:current-layer="layer1"
     showgrid="false"
     units="px"
     inkscape:window-width="3840"
     inkscape:window-height="2066"
     inkscape:window-x="-11"
     inkscape:window-y="-11"
     inkscape:window-maximized="1" />
  <metadata
     id="metadata5">
    <rdf:RDF>
      <cc:Work
         rdf:about="">
        <dc:format>image/svg+xml</dc:format>
        <dc:type
           rdf:resource="http://purl.org/dc/dcmitype/StillImage" />
        <dc:title></dc:title>
      </cc:Work>
    </rdf:RDF>
  </metadata>
  <g
     inkscape:label="Layer 1"
     inkscape:groupmode="layer"
     id="layer1"
     transform="translate(0,-32.416659)">
    <rect
       style="opacity:1;vector-effect:none;fill:#ff8000;fill-opacity:0.99267399;stroke:none;stroke-width:10.35124111;stroke-linecap:butt;stroke-linejoin:miter;stroke-miterlimit:4;stroke-dasharray:none;stroke-dashoffset:0;stroke-opacity:1;paint-order:normal"
       id="rect821"
       width="264.58334"
       height="264.58334"
       x="0"
       y="32.416664" />
    <path
       style="fill:#ffffff;fill-opacity:1;stroke-width:0.2115517"
       d="m 26.275584,179.88214 c -1.517362,-2.45269 -1.091949,-5.94331 1.076576,-8.8336 1.22924,-1.63839 7.485896,-7.59672 10.311362,-9.81964 10.016281,-7.88041 20.445823,-12.23941 32.493197,-13.58041 1.628737,-0.18131 5.43571,-0.35142 8.459934,-0.37807 l 5.498599,-0.0484 1.052745,-1.77726 c 1.672455,-2.82345 3.370191,-5.33713 5.844546,-8.65347 l 2.301101,-3.08411 -3.474808,-3.40165 c -1.91116,-1.87086 -9.680887,-9.46056 -17.266114,-16.86593 L 58.781399,99.975317 58.248666,98.361705 c -0.6507,-1.970939 -0.67734,-3.653174 -0.08383,-5.293797 0.655137,-1.811021 2.303967,-3.431633 4.206911,-4.134883 1.578887,-0.583535 3.714829,-0.596493 5.176359,-0.03149 1.426479,0.551513 4.024098,2.935642 15.898577,14.591915 11.488183,11.27706 18.340367,17.75672 19.644077,18.57608 1.13332,0.71229 1.71696,0.60134 2.86436,-0.54451 0.98429,-0.98318 2.86124,-2.38503 6.64134,-4.96085 2.29114,-1.56125 2.45519,-1.70671 2.57536,-2.28363 0.0706,-0.33888 -0.13866,-1.90849 -0.46499,-3.48802 -1.61127,-7.79902 -1.62397,-17.11697 -0.0336,-24.668305 1.16065,-5.510936 4.51167,-14.451758 7.38642,-19.707627 1.79411,-3.280147 2.96533,-4.984801 4.56912,-6.650109 1.22166,-1.268474 1.52884,-1.49142 2.4802,-1.799383 2.93627,-0.950578 6.74568,0.336888 8.46499,2.860921 0.83168,1.220953 1.07792,2.059114 1.07792,3.669087 0,1.806987 -0.82204,3.981549 -2.69811,7.137391 -7.99506,13.448994 -10.16359,26.58142 -6.50304,39.381945 1.10022,3.84729 3.46163,8.53389 7.47655,14.83837 4.3357,6.80823 6.7501,9.83506 13.20888,16.55944 6.6285,6.90107 11.70614,11.35502 17.69092,15.51798 11.50612,8.00352 19.74153,11.11239 29.94254,11.3033 8.61791,0.1613 17.14369,-2.31292 26.81788,-7.78265 4.51984,-2.55551 6.01443,-3.17642 7.5004,-3.11593 3.19744,0.13017 5.75354,1.80944 6.62586,4.35295 0.59663,1.73968 0.66179,4.12593 0.15313,5.60903 -0.39172,1.14222 -0.51749,1.30984 -1.88392,2.51103 -4.23517,3.72294 -15.28915,8.83004 -23.49811,10.85647 -8.78885,2.16956 -17.93425,2.43048 -26.70839,0.76201 -3.28195,-0.62411 -3.66291,-0.65839 -4.25294,-0.38281 -0.58746,0.27439 -8.47667,10.76764 -8.47667,11.2746 0,0.0705 3.36156,3.59911 7.47011,7.84124 17.94457,18.52794 24.71853,25.61217 25.6129,26.78612 1.76635,2.31856 2.0168,3.72272 1.16469,6.52945 -0.33245,1.09499 -3.1387,3.93395 -4.34702,4.39766 -0.97752,0.37516 -3.39511,0.48181 -4.5927,0.20262 l -0.875,-0.20397 -17.59047,-17.60382 -17.59046,-17.6038 -1.53358,1.17237 c -2.00025,1.52914 -6.57066,4.66764 -9.65883,6.63274 l -2.45174,1.56013 -0.0371,5.82392 c -0.0203,3.20316 -0.17535,7.04594 -0.34429,8.53952 -1.44926,12.81278 -6.64536,24.11821 -16.1468,35.13146 -3.55868,4.12492 -8.50328,8.4247 -10.37216,9.01954 -1.16641,0.37125 -2.79961,0.26199 -4.3483,-0.29089 -1.29263,-0.46147 -1.6008,-0.66691 -2.79833,-1.86545 -1.48705,-1.48817 -1.67388,-1.89021 -2.01499,-4.33382 -0.3622,-2.59459 0.6478,-4.29295 5.38276,-9.05132 9.18447,-9.22993 13.61077,-16.70408 15.4952,-26.16507 0.71271,-3.57823 0.89548,-5.23275 0.93574,-8.47096 l 0.0282,-2.2725 -2.79696,0.70052 c -5.32993,1.33491 -9.72573,1.8837 -15.0857,1.88337 -5.85339,-3.6e-4 -10.94752,-0.76793 -16.01497,-2.41308 -2.417424,-0.78482 -6.420844,-2.60533 -7.955846,-3.61781 l -0.585886,-0.38646 21.282032,-21.29999 c 11.70497,-11.71514 22.38463,-22.50723 23.73228,-23.98273 2.26221,-2.47682 2.48317,-2.77867 2.87895,-3.93269 0.56751,-1.65476 0.57048,-3.76996 0.009,-5.41698 -0.40316,-1.17976 -0.61633,-1.49702 -1.80351,-2.6842 -1.1859,-1.18591 -1.50489,-1.40043 -2.67731,-1.8007 -1.61353,-0.55086 -3.43686,-0.65145 -5.11685,-0.28229 l -1.2526,0.27527 -19.16234,18.95366 c -18.372037,18.17195 -29.024168,28.52877 -29.34224,28.52877 -0.08198,0 -0.690326,-1.07613 -1.351818,-2.39142 -5.57053,-11.07613 -6.478479,-22.62422 -2.918196,-37.11615 0.316413,-1.28794 0.525202,-2.3918 0.463978,-2.45302 -0.06122,-0.0613 -1.653845,-0.0388 -3.539144,0.05 -5.602564,0.2635 -9.822621,1.14608 -14.453313,3.02274 -6.469265,2.62178 -11.317219,5.97251 -17.441396,12.05482 -1.27978,1.27073 -3.306229,3.17772 -4.50356,4.23744 -2.544207,2.25179 -3.199012,2.51965 -5.866099,2.39972 -2.327928,-0.10468 -4.289808,-1.3332 -5.656253,-3.54194 z M 154.5183,132.64686 c -9.14752,-10.36544 -13.99206,-19.63211 -13.31004,-25.45954 0.28957,-2.4742 1.26509,-3.4701 4.2231,-4.31139 4.34041,-1.23441 10.47105,-1.02296 17.17119,0.59227 3.80285,0.91676 4.36447,0.96328 5.2827,0.43763 3.39912,-1.94589 6.04108,-2.74971 9.37801,-2.85324 3.96227,-0.12295 7.07307,0.67662 10.3719,2.66589 2.50533,1.51076 3.57743,2.50884 4.99041,4.64586 3.02744,4.57872 4.08494,9.3067 3.10447,13.87965 -0.51081,2.38248 -1.38886,4.72673 -2.34454,6.25951 -0.427,0.68486 -0.83334,1.43339 -0.90299,1.66339 -0.0696,0.22998 0.13075,1.1988 0.4453,2.15294 1.23098,3.734 2.15481,10.01518 2.00395,13.6249 -0.0978,2.3399 -0.62262,5.19208 -1.26041,6.84975 -0.88409,2.2979 -2.30543,3.1806 -5.0374,3.12848 -5.11968,-0.0977 -12.31433,-3.7851 -21.13126,-10.83029 -2.22044,-1.77425 -10.95665,-10.14808 -12.98441,-12.44583 z"
       id="path837"
       inkscape:connector-curvature="0" />
  </g>
</svg>
